<svg width="65" height="75" viewBox="0 0 65 75" fill="none" xmlns="http://www.w3.org/2000/svg">
<path d="M64.2951 54.876C62.5399 58.769 61.6941 60.5072 59.4331 63.9497C56.2796 68.7522 51.8256 74.7362 46.3134 74.7872C41.4174 74.8297 40.1594 71.5997 33.5081 71.638C26.8611 71.672 25.4756 74.8467 20.5754 74.8C15.0631 74.749 10.8429 69.3472 7.68515 64.5405C-1.1421 51.1105 -2.06435 35.343 3.3799 26.9578C7.2474 21.0035 13.3546 17.5185 19.0921 17.5185C24.9359 17.5185 28.6121 20.723 33.4401 20.723C38.1279 20.723 40.9839 17.51 47.7414 17.51C52.8414 17.51 58.2559 20.2938 62.1106 25.0963C49.4796 32.0195 51.5281 50.0565 64.2951 54.876ZM42.6159 12.1465C45.0681 8.993 46.9339 4.5475 46.2581 0C42.2461 0.27625 37.5584 2.82625 34.8171 6.154C32.3351 9.1715 30.2824 13.6468 31.0771 17.9988C35.4546 18.1305 39.9851 15.5168 42.6159 12.1465Z" fill="#94E4F2"/>
</svg>
