<svg width="200" height="200" viewBox="0 0 200 200" fill="none" xmlns="http://www.w3.org/2000/svg">
<path d="M15.1758 94.4469H159.688V182.748H15.1758V94.4469Z" fill="#FF5959"/>
<path d="M15.1758 146.869H64.5313V152.474H15.1758V146.869ZM110.352 146.869H159.707V152.474H110.352V146.869Z" fill="#F2D383"/>
<path d="M15.1758 131.537H31.3477V139.31H15.1758V131.537ZM118.965 135.931H135.137V143.705H118.965V135.931ZM106.523 167.767H122.695V175.541H106.523V167.767ZM132.168 94.4469H148.34V102.22H132.168V94.4469ZM143.535 156.107H159.707V163.88H143.535V156.107ZM45.957 105.521H62.1289V113.295H45.957V105.521ZM24.3164 91.3024H40.4883V99.0758H24.3164V91.3024ZM37.5195 158.138H53.6914V165.912H37.5195V158.138Z" fill="black"/>
<path d="M174.902 189.662C174.902 190.482 174.219 191.166 173.398 191.166H1.50391C0.683593 191.166 0 190.482 0 189.662V184.271C0 183.451 0.683593 182.767 1.50391 182.767H173.398C174.219 182.767 174.902 183.451 174.902 184.271V189.662Z" fill="#A4A9AD"/>
<path d="M64.5312 134.466H110.352V182.748H64.5312V134.466Z" fill="#FFB819"/>
<path d="M84.6484 134.466H90.2539V182.748H84.6484V134.466Z" fill="black"/>
<path d="M159.707 95.1891V82.3961C159.707 79.3102 157.187 76.7906 154.102 76.7906H20.7812C17.6953 76.7906 15.1758 79.3102 15.1758 82.3961V95.1891H159.707Z" fill="#333E48"/>
<path d="M55.918 80.736C55.918 89.0965 59.2392 97.1146 65.151 103.026C71.0628 108.938 79.0809 112.259 87.4414 112.259C95.8019 112.259 103.82 108.938 109.732 103.026C115.644 97.1146 118.965 89.0965 118.965 80.736C118.965 72.3754 115.644 64.3573 109.732 58.4455C103.82 52.5337 95.8019 49.2125 87.4414 49.2125C79.0809 49.2125 71.0628 52.5337 65.151 58.4455C59.2392 64.3573 55.918 72.3754 55.918 80.736Z" fill="white"/>
<path d="M87.4414 49.193C70.0195 49.193 55.8984 63.3141 55.8984 80.736C55.8984 82.025 55.9766 83.275 56.1328 84.525C56.1719 84.6032 56.1914 84.6617 56.2109 84.7203C56.4844 82.6696 56.9727 80.6969 57.6367 78.8024L87.4414 108.607L117.246 78.8024C117.891 80.6969 118.379 82.6696 118.672 84.7203C118.672 84.6617 118.711 84.6031 118.75 84.5446C118.906 83.2946 118.984 82.025 118.984 80.7555C118.965 63.3141 104.863 49.193 87.4414 49.193Z" fill="black"/>
<path d="M87.4414 51.986C71.6016 51.986 58.7109 64.8766 58.7109 80.7164C58.7109 96.5563 71.6016 109.447 87.4414 109.447C103.281 109.447 116.172 96.5563 116.172 80.7164C116.172 64.8766 103.281 51.986 87.4414 51.986ZM87.4414 115.052C68.5156 115.052 53.1055 99.6422 53.1055 80.7164C53.1055 61.7907 68.5156 46.4 87.4414 46.4C106.367 46.4 121.777 61.8102 121.777 80.736C121.777 99.6617 106.367 115.052 87.4414 115.052Z" fill="#333E48"/>
<path d="M51.9727 71.2437L87.4414 106.712L123.516 70.6383C103.535 51.3414 71.6797 51.5367 51.9727 71.2437Z" fill="#D68231"/>
<path d="M60.8789 80.1695L87.4414 106.732L114.609 79.5641C99.5508 65.15 75.6836 65.3453 60.8789 80.1695Z" fill="#F2D383"/>
<path d="M80.3711 99.6617C84.5508 95.4821 84.5508 88.7242 80.3711 84.5641C76.1914 80.3844 69.4336 80.3844 65.2734 84.5641L80.3711 99.6617ZM91.7188 80.7946C87.5391 84.9742 87.5391 91.7321 91.7188 95.8922C92.8906 97.0641 94.2773 97.9039 95.7422 98.4313L109.355 84.818C108.848 83.3531 108.008 81.9664 106.816 80.7946C102.656 76.6344 95.8789 76.6344 91.7188 80.7946Z" fill="#A93439"/>
<path d="M114.609 79.5641C99.5703 65.15 75.6836 65.3453 60.8789 80.15L64.2383 83.5094C76.7578 70.9899 97.0312 70.9899 109.551 83.5094C109.727 83.6852 109.902 83.8805 110.078 84.0758L114.609 79.5641Z" fill="black"/>
<path d="M149.102 115.248C149.102 113.197 147.422 111.517 145.371 111.517H122.695C120.645 111.517 118.965 113.197 118.965 115.248V126.244C118.965 128.295 120.645 129.974 122.695 129.974H145.371C147.422 129.974 149.102 128.295 149.102 126.244V115.248Z" fill="white"/>
<path d="M145.371 111.517H122.695C120.645 111.517 118.965 113.197 118.965 115.248V120.599C118.965 118.548 120.645 116.869 122.695 116.869H145.371C147.422 116.869 149.102 118.548 149.102 120.599V115.248C149.102 113.197 147.422 111.517 145.371 111.517Z" fill="black"/>
<path d="M122.695 114.31C122.188 114.31 121.758 114.74 121.758 115.248V126.244C121.758 126.752 122.188 127.181 122.695 127.181H145.371C145.879 127.181 146.309 126.752 146.309 126.244V115.248C146.309 114.74 145.879 114.31 145.371 114.31H122.695ZM145.371 132.787H122.695C119.102 132.787 116.172 129.857 116.172 126.263V115.267C116.172 111.673 119.102 108.744 122.695 108.744H145.371C148.965 108.744 151.895 111.673 151.895 115.267V126.263C151.895 129.857 148.965 132.787 145.371 132.787Z" fill="#333E48"/>
<path d="M25.7812 115.248C25.7812 113.197 27.4609 111.517 29.5117 111.517H52.1875C54.2383 111.517 55.918 113.197 55.918 115.248V126.244C55.918 128.295 54.2383 129.974 52.1875 129.974H29.5117C27.4609 129.974 25.7812 128.295 25.7812 126.244V115.248Z" fill="white"/>
<path d="M29.5117 111.517H52.1875C54.2383 111.517 55.918 113.197 55.918 115.248V120.599C55.918 118.548 54.2383 116.869 52.1875 116.869H29.5117C27.4609 116.869 25.7812 118.548 25.7812 120.599V115.248C25.7812 113.197 27.4609 111.517 29.5117 111.517Z" fill="black"/>
<path d="M29.5117 114.31C29.0039 114.31 28.5742 114.74 28.5742 115.248V126.244C28.5742 126.752 29.0039 127.181 29.5117 127.181H52.1875C52.6953 127.181 53.125 126.752 53.125 126.244V115.248C53.125 114.74 52.6953 114.31 52.1875 114.31H29.5117ZM52.168 132.787H29.5117C25.918 132.787 22.9883 129.857 22.9883 126.263V115.267C22.9883 111.673 25.918 108.744 29.5117 108.744H52.1875C55.7812 108.744 58.7109 111.673 58.7109 115.267V126.263C58.7109 129.857 55.7812 132.787 52.168 132.787ZM42.207 182.748H132.676V191.166H42.207V182.748Z" fill="#333E48"/>
<path d="M167.246 182.748C167.246 172.005 158.535 163.295 147.793 163.295C137.051 163.295 128.34 172.005 128.34 182.748H167.246ZM45.9766 182.748C45.9766 172.005 37.2656 163.295 26.5234 163.295C15.7813 163.295 7.07031 172.005 7.07031 182.748H45.9766Z" fill="#00AD68"/>
<path d="M113.145 182.748H107.539V137.259H67.3242V182.748H61.7188V134.466C61.7188 132.923 62.9688 131.673 64.5117 131.673H110.332C111.875 131.673 113.125 132.923 113.125 134.466L113.145 182.748Z" fill="#333E48"/>
</svg>
