<svg width="200" height="200" viewBox="0 0 200 200" fill="none" xmlns="http://www.w3.org/2000/svg">
<path d="M172.598 165.937V82.6563C172.598 79.5898 170.078 77.0703 167.012 77.0703H32.6172C29.5508 77.0703 27.0312 79.5898 27.0312 82.6563V165.937H172.598Z" fill="#D1D3D3"/>
<path d="M27.0117 146.582H43.1641V154.355H27.0117V146.582ZM35.0977 125H51.25V132.773H35.0977V125ZM128.32 126.23H144.473V134.004H128.32V126.23ZM156.445 130.117H172.598V137.891H156.445V130.117ZM143.125 148.086H159.277V155.859H143.125V148.086ZM57.7734 134.922H73.9258V142.695H57.7734V134.922Z" fill="black"/>
<path d="M167.012 77.0703H32.6172C29.5508 77.0703 27.0312 79.5898 27.0312 82.6563V121.504H172.617V82.6563C172.598 79.5898 170.098 77.0703 167.012 77.0703Z" fill="#0071CE"/>
<path d="M65.8398 121.504H133.77V165.938H65.8398V121.504Z" fill="white"/>
<path d="M187.168 168.633C187.168 169.453 186.484 170.137 185.664 170.137H13.9453C13.125 170.137 12.4414 169.453 12.4414 168.633V163.242C12.4414 162.422 13.125 161.738 13.9453 161.738H185.664C186.484 161.738 187.168 162.422 187.168 163.242V168.633Z" fill="#333E48"/>
<path d="M97.0117 121.504H102.598V161.738H97.0117V121.504Z" fill="#00B3E3"/>
<path d="M65.8398 121.504H133.77V129.355H65.8398V121.504Z" fill="black"/>
<path d="M65.0867 32.8408L81.4258 42.1586L78.6584 47.0111L62.3193 37.6934L65.0867 32.8408Z" fill="#00B3E3"/>
<path d="M65.0781 32.8516L62.3047 37.6953L69.3359 41.6992C70.7422 40.4688 71.7578 38.7695 72.1094 36.8359L65.0781 32.8516Z" fill="black"/>
<path d="M132.344 43.4375C133.164 41.2109 131.895 39.375 129.512 39.375H79.375C76.9922 39.375 75.2149 41.3086 75.4297 43.6914L77.0899 62.3047C77.3047 64.6875 79.4336 66.6211 81.8164 66.6211H119.414C121.797 66.6211 124.434 64.7852 125.254 62.5586L132.344 43.4375Z" fill="#A4A9AD"/>
<path d="M81.8164 71.8555C81.8164 72.5403 81.9513 73.2184 82.2134 73.8511C82.4754 74.4838 82.8596 75.0587 83.3438 75.5429C83.828 76.0272 84.4029 76.4113 85.0356 76.6734C85.6683 76.9354 86.3464 77.0703 87.0313 77.0703C87.7161 77.0703 88.3942 76.9354 89.0269 76.6734C89.6596 76.4113 90.2345 76.0272 90.7187 75.5429C91.2029 75.0587 91.5871 74.4838 91.8491 73.8511C92.1112 73.2184 92.2461 72.5403 92.2461 71.8555C92.2461 71.1706 92.1112 70.4925 91.8491 69.8598C91.5871 69.2271 91.2029 68.6523 90.7187 68.168C90.2345 67.6838 89.6596 67.2997 89.0269 67.0376C88.3942 66.7755 87.7161 66.6406 87.0313 66.6406C86.3464 66.6406 85.6683 66.7755 85.0356 67.0376C84.4029 67.2997 83.828 67.6838 83.3438 68.168C82.8596 68.6523 82.4754 69.2271 82.2134 69.8598C81.9513 70.4925 81.8164 71.1706 81.8164 71.8555Z" fill="#333E48"/>
<path d="M58.4766 35.2734C58.4766 35.9583 58.6114 36.6364 58.8735 37.2691C59.1356 37.9018 59.5197 38.4766 60.004 38.9609C60.4882 39.4451 61.0631 39.8293 61.6958 40.0913C62.3285 40.3534 63.0066 40.4883 63.6914 40.4883C64.3762 40.4883 65.0543 40.3534 65.687 40.0913C66.3197 39.8293 66.8946 39.4451 67.3789 38.9609C67.8631 38.4766 68.2472 37.9018 68.5093 37.2691C68.7714 36.6364 68.9062 35.9583 68.9062 35.2734C68.9062 34.5886 68.7714 33.9105 68.5093 33.2778C68.2472 32.6451 67.8631 32.0702 67.3789 31.586C66.8946 31.1017 66.3197 30.7176 65.687 30.4556C65.0543 30.1935 64.3762 30.0586 63.6914 30.0586C63.0066 30.0586 62.3285 30.1935 61.6958 30.4556C61.0631 30.7176 60.4882 31.1017 60.004 31.586C59.5197 32.0702 59.1356 32.6451 58.8735 33.2778C58.6114 33.9105 58.4766 34.5886 58.4766 35.2734Z" fill="#333E48"/>
<path d="M106.055 71.8555C106.055 72.5403 106.19 73.2184 106.452 73.8511C106.714 74.4838 107.098 75.0587 107.582 75.5429C108.066 76.0272 108.641 76.4113 109.274 76.6734C109.907 76.9354 110.585 77.0703 111.27 77.0703C111.954 77.0703 112.632 76.9354 113.265 76.6734C113.898 76.4113 114.473 76.0272 114.957 75.5429C115.441 75.0587 115.825 74.4838 116.087 73.8511C116.349 73.2184 116.484 72.5403 116.484 71.8555C116.484 71.1706 116.349 70.4925 116.087 69.8598C115.825 69.2271 115.441 68.6523 114.957 68.168C114.473 67.6838 113.898 67.2997 113.265 67.0376C112.632 66.7755 111.954 66.6406 111.27 66.6406C110.585 66.6406 109.907 66.7755 109.274 67.0376C108.641 67.2997 108.066 67.6838 107.582 68.168C107.098 68.6523 106.714 69.2271 106.452 69.8598C106.19 70.4925 106.055 71.1706 106.055 71.8555Z" fill="#333E48"/>
<path d="M75.5664 45.2734L76.0742 50.8594H129.59L131.66 45.2734H75.5664ZM76.9141 60.3711H126.074L128.145 54.7852H76.4258L76.9141 60.3711Z" fill="black"/>
<path d="M159.277 96.1719H90.1953C88.6523 96.1719 87.4023 94.9219 87.4023 93.3789C87.4023 91.8359 88.6523 90.5859 90.1953 90.5859H159.258C160.801 90.5859 162.051 91.8359 162.051 93.3789C162.07 94.9219 160.82 96.1719 159.277 96.1719Z" fill="#00B3E3"/>
<path d="M159.277 107.695H90.1953C88.6523 107.695 87.4023 106.445 87.4023 104.902C87.4023 103.359 88.6523 102.109 90.1953 102.109H159.258C160.801 102.109 162.051 103.359 162.051 104.902C162.07 106.445 160.82 107.695 159.277 107.695Z" fill="#FFB819"/>
<path d="M185.449 148.906C185.449 141.816 179.688 117.441 172.598 117.441C165.508 117.441 159.746 141.816 159.746 148.906C159.746 155.996 165.508 161.758 172.598 161.758C179.707 161.738 185.449 155.996 185.449 148.906ZM39.8633 148.906C39.8633 141.816 34.1016 117.441 27.0117 117.441C19.9219 117.441 14.1602 141.816 14.1602 148.906C14.1602 155.996 19.9219 161.758 27.0117 161.758C34.1211 161.738 39.8633 155.996 39.8633 148.906Z" fill="#00AD68"/>
<path d="M56.2109 77.0703H68.9062V121.504H56.2109V77.0703Z" fill="#00B3E3"/>
<path d="M43.5156 77.0703H56.2109V121.504H43.5156V77.0703Z" fill="#FFB819"/>
<path d="M56.4062 161.738H143.223V170.137H56.4062V161.738Z" fill="#A4A9AD"/>
</svg>
