<svg width="200" height="200" viewBox="0 0 200 200" fill="none" xmlns="http://www.w3.org/2000/svg">
<path d="M137.402 55.5078H123.008V49.9219H137.402C139.863 49.9219 141.875 47.9102 141.875 45.4492C141.875 42.9883 139.863 40.9766 137.402 40.9766H133.047V35.3906H137.402C142.949 35.3906 147.461 39.9023 147.461 45.4492C147.461 50.9961 142.949 55.5078 137.402 55.5078Z" fill="#D68231"/>
<path d="M130.273 28.0078C135.625 28.0078 136.387 32.2461 136.035 34.2773C133.066 51.3281 118.203 64.2773 100.312 64.2773C82.4219 64.2773 67.5586 51.3281 64.5898 34.2773C64.2383 32.2461 65 28.0078 70.3516 28.0078H130.273ZM23.7695 69.9414H176.816V170.293H23.7695V69.9414Z" fill="#FFB819"/>
<path d="M23.7695 114.199H39.9023V121.953H23.7695V114.199ZM49.2578 91.5625H65.3906V99.3164H49.2578V91.5625ZM98.9453 89.1211H115.078V96.875H98.9453V89.1211Z" fill="black"/>
<path d="M160.703 100.195H176.836V107.949H160.703V100.195ZM158.047 147.871H174.18V155.625H158.047V147.871Z" fill="black"/>
<path d="M95.4883 133.223H111.621V140.977H95.4883V133.223ZM30.4492 154.395H46.582V162.148H30.4492V154.395Z" fill="black"/>
<path d="M20.2734 73.8477V78.8086C20.2734 85.1172 25.3906 90.2344 31.6992 90.2344C38.0078 90.2344 43.125 85.1172 43.125 78.8086V73.8477H20.2734Z" fill="#00B3E3"/>
<path d="M43.1445 73.8477V78.8086C43.1445 85.1172 48.2617 90.2344 54.5703 90.2344C60.8789 90.2344 65.9961 85.1172 65.9961 78.8086V73.8477H43.1445Z" fill="white"/>
<path d="M66.0156 73.8477V78.8086C66.0156 85.1172 71.1328 90.2344 77.4414 90.2344C83.75 90.2344 88.8672 85.1172 88.8672 78.8086V73.8477H66.0156Z" fill="#00B3E3"/>
<path d="M88.8672 73.8477V78.8086C88.8672 85.1172 93.9844 90.2344 100.293 90.2344C106.602 90.2344 111.719 85.1172 111.719 78.8086V73.8477H88.8672Z" fill="white"/>
<path d="M111.738 73.8477V78.8086C111.738 85.1172 116.855 90.2344 123.164 90.2344C129.473 90.2344 134.59 85.1172 134.59 78.8086V73.8477H111.738Z" fill="#00B3E3"/>
<path d="M134.609 73.8477V78.8086C134.609 85.1172 139.727 90.2344 146.035 90.2344C152.344 90.2344 157.461 85.1172 157.461 78.8086V73.8477H134.609Z" fill="white"/>
<path d="M157.461 73.8477V78.8086C157.461 85.1172 162.578 90.2344 168.887 90.2344C175.195 90.2344 180.312 85.1172 180.312 78.8086V73.8477H157.461Z" fill="#00B3E3"/>
<path d="M183.262 74.9414C183.262 76.9922 181.582 78.6719 179.531 78.6719H21.0742C19.0234 78.6719 17.3438 76.9922 17.3438 74.9414V66.1914C17.3438 64.1406 19.0234 62.4609 21.0742 62.4609H179.551C181.602 62.4609 183.281 64.1406 183.281 66.1914L183.262 74.9414Z" fill="#333E48"/>
<path d="M107.656 104.062H157.988V170.293H107.656V104.062Z" fill="white"/>
<path d="M116.523 113.574H149.102V136.973H116.523V113.574Z" fill="#00B3E3"/>
<path d="M125.098 120.996H140.547V126.582H125.098V120.996Z" fill="white"/>
<path d="M116.543 147.91C116.543 148.646 116.835 149.351 117.355 149.871C117.875 150.391 118.581 150.684 119.316 150.684C120.052 150.684 120.757 150.391 121.278 149.871C121.798 149.351 122.09 148.646 122.09 147.91C122.09 147.175 121.798 146.469 121.278 145.949C120.757 145.429 120.052 145.137 119.316 145.137C118.581 145.137 117.875 145.429 117.355 145.949C116.835 146.469 116.543 147.175 116.543 147.91Z" fill="#333E48"/>
<path d="M187.539 171.367C187.539 172.188 186.855 172.871 186.035 172.871H14.5703C13.75 172.871 13.0664 172.188 13.0664 171.367V165.977C13.0664 165.156 13.75 164.473 14.5703 164.473H186.035C186.855 164.473 187.539 165.156 187.539 165.977V171.367Z" fill="#333E48"/>
<path d="M100.586 164.473H165.039V172.852H100.586V164.473Z" fill="#A4A9AD"/>
<path d="M36.0156 104.062H95.4297V145.117H36.0156V104.062Z" fill="#333E48"/>
<path d="M73.4961 114.062H57.9297L54.5117 125.898H76.9141L73.4961 114.062Z" fill="#00B3E3"/>
<path d="M62.9297 104.062H68.5156V114.043H62.9297V104.062Z" fill="white"/>
<path d="M44.2773 145.117V136.973C44.2773 135.43 45.5273 134.18 47.0703 134.18C48.6133 134.18 49.8633 135.43 49.8633 136.973V145.117H44.2773ZM81.5625 145.117V136.973C81.5625 135.43 82.8125 134.18 84.3555 134.18C85.8984 134.18 87.1484 135.43 87.1484 136.973V145.117H81.5625Z" fill="#00B3E3"/>
</svg>
