<svg width="200" height="200" viewBox="0 0 200 200" fill="none" xmlns="http://www.w3.org/2000/svg">
<path d="M110 62.3633C110 49.8242 101.641 62.0312 101.641 39.1992V28.9453C101.641 27.832 100.723 26.9141 99.6094 26.9141H92.4414C91.3281 26.9141 90.4102 27.832 90.4102 28.9453V39.1992C90.4102 62.0312 82.0508 49.8242 82.0508 62.3633V94.9609C82.0508 96.6406 83.418 98.0273 85.1172 98.0273H106.973C108.652 98.0273 110.039 96.6602 110.039 94.9609L110 62.3633Z" fill="#D68231"/>
<path d="M90.3906 30.0977H101.641V34.5117H90.3906V30.0977Z" fill="black"/>
<path d="M88.3398 62.2266H103.691V90.1562H88.3398V62.2266Z" fill="white"/>
<path d="M103.437 29.9219C103.437 30.9375 102.598 31.7773 101.582 31.7773H90.4688C89.4531 31.7773 88.6133 30.9375 88.6133 29.9219V26.3867C88.6133 25.3711 89.4531 24.5312 90.4688 24.5312H101.582C102.598 24.5312 103.437 25.3711 103.437 26.3867V29.9219Z" fill="#A4A9AD"/>
<path d="M68.2617 67.1484C68.2617 54.6094 59.9023 66.8164 59.9023 43.9844V33.7305C59.9023 32.6172 58.9844 31.6992 57.8711 31.6992H50.7031C49.5898 31.6992 48.6719 32.6172 48.6719 33.7305V43.9844C48.6719 66.8164 40.3125 54.6094 40.3125 67.1484V99.7461C40.3125 101.426 41.6797 102.813 43.3789 102.813H65.2344C66.9141 102.813 68.3008 101.445 68.3008 99.7461L68.2617 67.1484Z" fill="#D68231"/>
<path d="M48.6523 34.8828H59.9023V39.2969H48.6523V34.8828Z" fill="black"/>
<path d="M46.6016 66.9922H61.9531V94.9219H46.6016V66.9922Z" fill="white"/>
<path d="M61.6797 34.707C61.6797 35.7227 60.8398 36.5625 59.8242 36.5625H48.7109C47.6953 36.5625 46.8555 35.7227 46.8555 34.707V31.1719C46.8555 30.1563 47.6953 29.3164 48.7109 29.3164H59.8242C60.8398 29.3164 61.6797 30.1563 61.6797 31.1719V34.707Z" fill="#A4A9AD"/>
<path d="M22.0117 86.1328H178.438V170.547H22.0117V86.1328Z" fill="#00AD68"/>
<path d="M22.0117 157.246H38.5352V165.195H22.0117V157.246ZM69.6875 99.7461H86.2109V107.695H69.6875V99.7461ZM85.9961 148.965H102.52V156.914H85.9961V148.965ZM123.828 132.871H140.352V140.82H123.828V132.871ZM154.902 153.789H171.426V161.738H154.902V153.789ZM129.844 92.168H146.367V100.117H129.844V92.168ZM170.156 114.648H178.418V122.598H170.156V114.648ZM22.0117 117.383H30.2734V125.332H22.0117V117.383Z" fill="black"/>
<path d="M129.062 62.2266H164.98V80.9766H129.062V62.2266Z" fill="#A4A9AD"/>
<path d="M129.062 62.2266H164.98V69.3164H129.062V62.2266Z" fill="black"/>
<path d="M167.617 56.7773C167.617 55.7227 166.758 54.8633 165.703 54.8633H128.34C127.285 54.8633 126.426 55.7227 126.426 56.7773V61.9922C126.426 63.0469 127.285 63.9063 128.34 63.9063H165.723C166.777 63.9063 167.637 63.0469 167.637 61.9922L167.617 56.7773Z" fill="#D1D3D3"/>
<path d="M178.418 96.1328V80.2734C178.418 78.1836 176.699 76.4648 174.609 76.4648H25.8203C23.7305 76.4648 22.0117 78.1836 22.0117 80.2734V96.1328H178.418Z" fill="#333E48"/>
<path d="M132.09 111.113H168.008V170.527H132.09V111.113Z" fill="#FFB819"/>
<path d="M138.105 143.848C138.105 144.651 138.424 145.421 138.992 145.988C139.56 146.556 140.33 146.875 141.133 146.875C141.936 146.875 142.706 146.556 143.273 145.988C143.841 145.421 144.16 144.651 144.16 143.848C144.16 143.045 143.841 142.275 143.273 141.707C142.706 141.139 141.936 140.82 141.133 140.82C140.33 140.82 139.56 141.139 138.992 141.707C138.424 142.275 138.105 143.045 138.105 143.848Z" fill="#333E48"/>
<path d="M37.4023 152.93C35.3125 152.93 33.5938 151.211 33.5938 149.121V111.113C33.5938 109.023 35.3125 107.305 37.4023 107.305H115.176C117.266 107.305 118.984 109.023 118.984 111.113V149.121C118.984 151.211 117.266 152.93 115.176 152.93H37.4023Z" fill="white"/>
<path d="M41.2109 145.312V114.922L58.75 145.312H41.2109ZM58.75 145.312L76.2891 114.922L93.8281 145.312H58.75Z" fill="#218649"/>
<path d="M76.2891 114.922L58.75 145.312L41.2109 114.922H76.2891Z" fill="#FFB819"/>
<path d="M111.367 114.922L93.8281 145.312L76.2891 114.922H111.367Z" fill="#FFB819"/>
<path d="M93.8281 145.312L111.367 114.922V145.312H93.8281Z" fill="#218649"/>
<path d="M187.324 174.102C187.324 174.922 186.641 175.605 185.82 175.605H14.6094C13.7891 175.605 13.1055 174.922 13.1055 174.102V168.73C13.1055 167.91 13.7891 167.227 14.6094 167.227H185.82C186.641 167.227 187.324 167.91 187.324 168.73V174.102Z" fill="#333E48"/>
<path d="M128.008 167.227H172.109V175.605H128.008V167.227Z" fill="#A4A9AD"/>
</svg>
