<svg width="200" height="200" viewBox="0 0 200 200" fill="none" xmlns="http://www.w3.org/2000/svg">
<g clip-path="url(#clip0_22_190)">
<g filter="url(#filter0_d_22_190)">
<path d="M181.226 118.775C181.226 73.9156 144.86 0 100.001 0C55.1421 0 18.7761 73.9156 18.7761 118.775C18.7761 163.634 55.1417 200 100.001 200C144.86 200 181.226 163.635 181.226 118.775Z" fill="#F2F2F2"/>
</g>
<path d="M100.004 0C69.1934 0 44.218 73.9184 44.218 118.775C44.218 163.284 68.8051 199.429 99.2816 199.995C54.7539 199.611 18.7754 163.392 18.7754 118.775C18.7762 73.9184 55.1422 0 100.004 0Z" fill="#E09B2D"/>
<path d="M179.486 100.29C180.627 106.784 181.226 113.018 181.226 118.775C181.226 126.425 180.169 133.829 178.188 140.85H21.8117C19.8305 133.829 18.7734 126.425 18.7734 118.775C18.7734 113.018 19.373 106.784 20.5137 100.29H179.486Z" fill="#F95428"/>
<path d="M179.486 100.29H45.4105C46.207 93.6774 47.3871 86.7942 48.9062 79.8672V79.8622C53.4441 76.9567 56.0644 72.468 64.1371 72.468C76.089 72.468 76.089 82.3008 88.0406 82.3008C99.9922 82.3008 99.9925 72.468 111.949 72.468C123.901 72.468 123.901 82.3008 135.853 82.3008C147.809 82.3008 147.809 72.468 159.761 72.468C167.372 72.468 170.135 76.4551 174.225 79.3508C176.527 86.45 178.301 93.5149 179.486 100.29Z" fill="#F7B239"/>
<path d="M178.188 140.85C176.099 148.269 172.982 155.255 169.004 161.647C166.713 160.064 163.985 158.839 159.771 158.839C147.819 158.839 147.819 168.672 135.863 168.672C123.911 168.672 123.911 158.839 111.959 158.839C100.007 158.839 100.007 168.672 88.0555 168.672C76.0989 168.672 76.0989 158.839 64.1469 158.839C58.8274 158.839 55.8774 160.786 53.1832 162.95C50.1696 156.209 47.834 148.776 46.3004 140.85H178.188Z" fill="#F7B239"/>
<path d="M46.3004 140.85H21.8266C19.8453 133.835 18.7734 126.431 18.7734 118.776C18.7734 113.019 19.373 106.785 20.5137 100.29H45.4105C44.6289 106.785 44.216 113.019 44.216 118.776C44.216 126.425 44.9437 133.83 46.3004 140.85Z" fill="#E54728"/>
<path d="M99.2797 199.995C73.2324 199.768 50.1106 187.281 35.4059 168.023C36.7824 168.431 38.3606 168.672 40.2387 168.672C46.8711 168.672 49.8258 165.643 53.1836 162.949C63.0016 184.975 79.9582 199.636 99.2797 199.995Z" fill="#E6E6E6"/>
<path d="M100.002 0C77.1707 0 57.5446 40.5898 48.9063 79.8621V79.8672C46.7281 81.2633 44.1078 82.3008 40.2289 82.3008C33.2918 82.3008 30.3813 78.9871 26.8219 76.2094C39.9582 38.1121 67.7903 0 100.002 0Z" fill="#E6E6E6"/>
<path d="M131.674 12.3008C126.915 23.2891 115.976 30.9734 103.242 30.9734C89.1172 30.9734 77.2 21.5191 73.4781 8.59375C74.8989 7.66953 76.3344 6.80898 77.7899 6.01758C84.85 2.17812 92.3035 0 100.002 0C109.324 0 118.282 3.1957 126.625 8.66289C128.336 9.78359 130.017 10.998 131.674 12.3008Z" fill="#F95428"/>
<path d="M126.625 8.66289C120.956 15.2016 112.584 19.3363 103.243 19.3363C92.6969 19.3363 83.3852 14.066 77.7903 6.01797C84.85 2.17813 92.3036 0 100.002 0C109.324 0 118.282 3.1957 126.625 8.66289Z" fill="#E54728"/>
<path d="M165.042 120.742C165.042 118.707 166.693 117.055 168.729 117.055C170.765 117.055 172.417 118.707 172.417 120.742C172.417 122.778 170.765 124.43 168.729 124.43C166.693 124.429 165.042 122.777 165.042 120.742ZM152.544 120.742C152.544 118.707 154.196 117.055 156.232 117.055C158.272 117.055 159.919 118.707 159.919 120.742C159.919 122.778 158.272 124.43 156.232 124.43C154.196 124.429 152.544 122.777 152.544 120.742ZM140.052 120.742C140.052 118.707 141.698 117.055 143.739 117.055C145.775 117.055 147.427 118.707 147.427 120.742C147.427 122.778 145.775 124.43 143.739 124.43C141.698 124.429 140.052 122.777 140.052 120.742ZM127.554 120.742C127.554 118.707 129.206 117.055 131.241 117.055C133.277 117.055 134.929 118.707 134.929 120.742C134.929 122.778 133.277 124.43 131.241 124.43C129.206 124.429 127.554 122.777 127.554 120.742ZM115.057 120.742C115.057 118.707 116.708 117.055 118.744 117.055C120.78 117.055 122.431 118.707 122.431 120.742C122.431 122.778 120.779 124.43 118.744 124.43C116.708 124.429 115.057 122.777 115.057 120.742ZM102.564 120.742C102.564 118.707 104.211 117.055 106.247 117.055C108.286 117.055 109.939 118.707 109.939 120.742C109.939 122.778 108.287 124.43 106.247 124.43C104.211 124.429 102.564 122.777 102.564 120.742ZM90.0665 120.742C90.0665 118.707 91.7184 117.055 93.7536 117.055C95.7891 117.055 97.4411 118.707 97.4411 120.742C97.4411 122.778 95.7891 124.43 93.7536 124.43C91.7184 124.429 90.0665 122.777 90.0665 120.742ZM77.5684 120.742C77.5684 118.707 79.2204 117.055 81.2559 117.055C83.2915 117.055 84.943 118.707 84.943 120.742C84.943 122.778 83.2911 124.43 81.2559 124.43C79.2208 124.429 77.5684 122.777 77.5684 120.742ZM65.0708 120.742C65.0708 118.707 66.7227 117.055 68.7579 117.055C70.7981 117.055 72.4454 118.707 72.4454 120.742C72.4454 122.778 70.7985 124.43 68.7579 124.43C66.7235 124.429 65.0708 122.777 65.0708 120.742ZM52.579 120.742C52.579 118.707 54.2258 117.055 56.2661 117.055C58.3016 117.055 59.9536 118.707 59.9536 120.742C59.9536 122.778 58.3016 124.43 56.2661 124.43C54.2254 124.429 52.579 122.777 52.579 120.742ZM40.0809 120.742C40.0809 118.707 41.7329 117.055 43.7684 117.055C45.804 117.055 47.4559 118.707 47.4559 120.742C47.4559 122.778 45.804 124.43 43.7684 124.43C41.7333 124.429 40.0809 122.777 40.0809 120.742ZM27.5833 120.742C27.5833 118.707 29.2352 117.055 31.2708 117.055C33.3063 117.055 34.9579 118.707 34.9579 120.742C34.9579 122.778 33.3059 124.43 31.2704 124.43C29.2356 124.429 27.5833 122.777 27.5833 120.742Z" fill="#F2F2F2"/>
<path d="M102.623 47.5515C102.391 45.5261 103.847 43.6972 105.872 43.466C107.893 43.2347 109.722 44.6902 109.954 46.7156C110.18 48.7363 108.729 50.5652 106.708 50.7961C106.566 50.8109 106.423 50.8207 106.286 50.8207C104.432 50.8211 102.839 49.4297 102.623 47.5515ZM93.2622 50.7914C91.2415 50.5601 89.7864 48.7312 90.0172 46.7058C90.2532 44.6851 92.0821 43.2347 94.1028 43.466C96.1282 43.6972 97.5786 45.5261 97.3477 47.5465C97.1313 49.4293 95.5336 50.816 93.6848 50.816C93.5469 50.816 93.4044 50.8062 93.2622 50.7914ZM115.096 45.516C114.407 43.5984 115.4 41.4894 117.318 40.7961C119.236 40.1078 121.345 41.1058 122.033 43.0183C122.721 44.9359 121.728 47.05 119.811 47.7383C119.398 47.8859 118.98 47.9547 118.567 47.9547C117.052 47.9547 115.637 47.0207 115.096 45.516ZM80.1649 47.7285C78.2473 47.0351 77.2543 44.9261 77.9426 43.0086C78.6309 41.091 80.745 40.098 82.6625 40.7863C84.5801 41.4797 85.5731 43.5886 84.8797 45.5062C84.3391 47.0105 82.9231 47.9449 81.4137 47.9449C80.9958 47.9449 80.5727 47.8761 80.1649 47.7285ZM126.762 40.6734C125.651 38.9625 126.138 36.6812 127.844 35.5703C129.554 34.4593 131.836 34.9461 132.947 36.6519C134.053 38.3578 133.572 40.6441 131.865 41.7551C131.241 42.1582 130.548 42.35 129.859 42.35C128.65 42.35 127.47 41.7601 126.762 40.6734ZM68.1141 41.7355C66.4082 40.6246 65.9215 38.3433 67.0325 36.6371C68.1434 34.9312 70.4297 34.4445 72.1356 35.5554C73.8415 36.6664 74.3282 38.9527 73.2172 40.6586C72.5094 41.7453 71.3293 42.3351 70.12 42.3351C69.4325 42.3351 68.734 42.1433 68.1141 41.7355ZM137.013 33.289C135.543 31.8781 135.499 29.5426 136.909 28.0726C138.32 26.6027 140.656 26.5586 142.121 27.9695C143.591 29.3804 143.64 31.716 142.229 33.1808C141.502 33.9379 140.539 34.3164 139.57 34.3164C138.65 34.3164 137.731 33.9722 137.013 33.289ZM57.7559 33.1613C56.345 31.6914 56.3942 29.3558 57.8641 27.95C59.334 26.539 61.6645 26.5883 63.0754 28.0531C64.4864 29.523 64.4372 31.8586 62.9672 33.2695C62.2543 33.9527 61.3348 34.2969 60.4157 34.2969C59.4465 34.2969 58.4786 33.9133 57.7559 33.1613Z" fill="#F7B239"/>
</g>
<defs>
<filter id="filter0_d_22_190" x="14.7761" y="0" width="170.45" height="208" filterUnits="userSpaceOnUse" color-interpolation-filters="sRGB">
<feFlood flood-opacity="0" result="BackgroundImageFix"/>
<feColorMatrix in="SourceAlpha" type="matrix" values="0 0 0 0 0 0 0 0 0 0 0 0 0 0 0 0 0 0 127 0" result="hardAlpha"/>
<feOffset dy="4"/>
<feGaussianBlur stdDeviation="2"/>
<feComposite in2="hardAlpha" operator="out"/>
<feColorMatrix type="matrix" values="0 0 0 0 0 0 0 0 0 0 0 0 0 0 0 0 0 0 0.25 0"/>
<feBlend mode="normal" in2="BackgroundImageFix" result="effect1_dropShadow_22_190"/>
<feBlend mode="normal" in="SourceGraphic" in2="effect1_dropShadow_22_190" result="shape"/>
</filter>
<clipPath id="clip0_22_190">
<rect width="200" height="200" fill="white"/>
</clipPath>
</defs>
</svg>
