<svg width="63" height="65" viewBox="0 0 63 65" fill="none" xmlns="http://www.w3.org/2000/svg">
<path fill-rule="evenodd" clip-rule="evenodd" d="M0.25 6.42601C0.25 1.72282 5.24897 -1.29524 9.41091 0.895258L58.9512 26.9692C63.4034 29.3123 63.4034 35.6873 58.9512 38.0307L9.41094 64.1045C5.249 66.2951 0.25 63.277 0.25 58.5739V6.42601ZM56.0403 32.4998L44.8381 26.6039L38.4509 32.4998L44.8381 38.3957L56.0403 32.4998ZM38.9697 41.4845L33.8437 36.7526L15.1182 54.0379L38.9697 41.4845ZM33.8437 28.247L38.9697 23.5154L15.1182 10.9619L33.8437 28.247ZM6.5 11.5123L29.2366 32.4998L6.5 53.4873V11.5123Z" fill="#94B2F2"/>
</svg>
